<svg width="165" height="34" viewBox="0 0 165 34" fill="none" xmlns="http://www.w3.org/2000/svg">
<path d="M47.7554 23.8585C46.4762 23.8585 45.4033 23.6523 44.5368 23.24C43.6909 22.807 43.0616 22.24 42.6489 21.5389C42.2569 20.8173 42.0609 20.0235 42.0609 19.1575C42.0609 18.2297 42.2982 17.4049 42.7727 16.6833C43.2473 15.9616 43.9797 15.3946 44.9701 14.9823C45.9604 14.5699 47.1983 14.3637 48.6839 14.3637H52.5215C52.5215 13.6214 52.4183 13.0132 52.212 12.539C52.0263 12.0441 51.7168 11.673 51.2835 11.4256C50.8709 11.1782 50.3138 11.0544 49.6123 11.0544C48.8489 11.0544 48.199 11.2194 47.6626 11.5493C47.1468 11.8792 46.827 12.374 46.7032 13.0338H42.4942C42.618 11.9204 42.9894 10.9617 43.6083 10.1575C44.2273 9.33281 45.0526 8.69363 46.0842 8.24003C47.1364 7.7658 48.3228 7.52869 49.6433 7.52869C51.1081 7.52869 52.377 7.77611 53.4499 8.27095C54.5434 8.7658 55.379 9.47713 55.9567 10.405C56.5551 11.3328 56.8542 12.4771 56.8542 13.8379V23.4874H53.2023L52.7071 21.1369C52.5008 21.5492 52.2326 21.9204 51.9025 22.2503C51.593 22.5802 51.2319 22.8688 50.8193 23.1162C50.4067 23.3431 49.9424 23.5183 49.4266 23.642C48.9314 23.7863 48.3744 23.8585 47.7554 23.8585ZM48.8077 20.5183C49.3235 20.5183 49.7877 20.4358 50.2003 20.2709C50.613 20.0853 50.9637 19.8276 51.2526 19.4977C51.5414 19.1678 51.7787 18.7967 51.9644 18.3843C52.1501 17.9513 52.2739 17.4874 52.3358 16.9926V16.9616H49.21C48.6116 16.9616 48.1165 17.0441 47.7245 17.2091C47.3531 17.3534 47.0745 17.5699 46.8889 17.8585C46.7032 18.1266 46.6103 18.4359 46.6103 18.7864C46.6103 19.1575 46.7032 19.4771 46.8889 19.7451C47.0745 20.0132 47.3324 20.209 47.6626 20.3328C47.9927 20.4565 48.3744 20.5183 48.8077 20.5183Z" fill="white"/>
<path d="M60.7489 30.2915V7.89982H64.5865L65.0816 10.0029C65.3911 9.56992 65.7728 9.16786 66.2267 8.79673C66.6806 8.40497 67.2171 8.0957 67.836 7.8689C68.4756 7.64209 69.2081 7.52869 70.0334 7.52869C71.4776 7.52869 72.7568 7.88951 73.871 8.61116C75.0057 9.33281 75.8929 10.3122 76.5325 11.5493C77.1721 12.7658 77.4919 14.1575 77.4919 15.7245C77.4919 17.2915 77.1618 18.6936 76.5016 19.9307C75.8414 21.1472 74.9542 22.1059 73.84 22.807C72.7259 23.508 71.4673 23.8585 70.0643 23.8585C68.9296 23.8585 67.9392 23.6523 67.0933 23.24C66.268 22.8276 65.5975 22.2503 65.0816 21.508V30.2915H60.7489ZM69.0121 20.0853C69.7961 20.0853 70.4976 19.8998 71.1166 19.5286C71.7355 19.1575 72.2204 18.642 72.5711 17.9823C72.9219 17.3225 73.0973 16.5699 73.0973 15.7245C73.0973 14.8586 72.9219 14.0957 72.5711 13.4359C72.2204 12.7761 71.7355 12.2606 71.1166 11.8895C70.4976 11.4977 69.7961 11.3019 69.0121 11.3019C68.2074 11.3019 67.4956 11.4977 66.8766 11.8895C66.2783 12.2606 65.8038 12.7761 65.453 13.4359C65.1023 14.0957 64.9269 14.8482 64.9269 15.6936C64.9269 16.5596 65.1023 17.3225 65.453 17.9823C65.8038 18.642 66.2783 19.1575 66.8766 19.5286C67.4956 19.8998 68.2074 20.0853 69.0121 20.0853Z" fill="white"/>
<path d="M81.1192 30.2915V7.89982H84.9568L85.4519 10.0029C85.7614 9.56992 86.1431 9.16786 86.597 8.79673C87.0509 8.40497 87.5874 8.0957 88.2063 7.8689C88.8459 7.64209 89.5784 7.52869 90.4037 7.52869C91.8479 7.52869 93.1271 7.88951 94.2413 8.61116C95.376 9.33281 96.2632 10.3122 96.9028 11.5493C97.5424 12.7658 97.8622 14.1575 97.8622 15.7245C97.8622 17.2915 97.5321 18.6936 96.8719 19.9307C96.2116 21.1472 95.3245 22.1059 94.2103 22.807C93.0962 23.508 91.8376 23.8585 90.4346 23.8585C89.2999 23.8585 88.3095 23.6523 87.4636 23.24C86.6383 22.8276 85.9677 22.2503 85.4519 21.508V30.2915H81.1192ZM89.3824 20.0853C90.1664 20.0853 90.8679 19.8998 91.4869 19.5286C92.1058 19.1575 92.5907 18.642 92.9414 17.9823C93.2922 17.3225 93.4676 16.5699 93.4676 15.7245C93.4676 14.8586 93.2922 14.0957 92.9414 13.4359C92.5907 12.7761 92.1058 12.2606 91.4869 11.8895C90.8679 11.4977 90.1664 11.3019 89.3824 11.3019C88.5777 11.3019 87.8659 11.4977 87.2469 11.8895C86.6486 12.2606 86.1741 12.7761 85.8233 13.4359C85.4726 14.0957 85.2972 14.8482 85.2972 15.6936C85.2972 16.5596 85.4726 17.3225 85.8233 17.9823C86.1741 18.642 86.6486 19.1575 87.2469 19.5286C87.8659 19.8998 88.5777 20.0853 89.3824 20.0853Z" fill="white"/>
<path d="M107.741 23.8585C106.359 23.8585 105.152 23.642 104.12 23.209C103.109 22.7554 102.304 22.1369 101.706 21.3534C101.128 20.5493 100.788 19.6317 100.685 18.6008H104.399C104.502 19.0338 104.687 19.4359 104.956 19.807C105.224 20.1575 105.585 20.4358 106.039 20.642C106.513 20.8482 107.07 20.9513 107.71 20.9513C108.329 20.9513 108.835 20.8688 109.227 20.7039C109.619 20.5183 109.907 20.2812 110.093 19.9926C110.279 19.7039 110.372 19.3946 110.372 19.0647C110.372 18.5699 110.238 18.1884 109.969 17.9204C109.701 17.6524 109.309 17.4462 108.793 17.3018C108.298 17.1369 107.7 16.9823 106.998 16.8379C106.256 16.6936 105.533 16.5183 104.832 16.3122C104.151 16.0854 103.532 15.807 102.975 15.4771C102.439 15.1472 102.005 14.7245 101.675 14.2091C101.366 13.6936 101.211 13.0647 101.211 12.3225C101.211 11.4153 101.448 10.6008 101.923 9.87919C102.418 9.15755 103.119 8.59054 104.027 8.17817C104.956 7.74518 106.06 7.52869 107.339 7.52869C109.154 7.52869 110.599 7.95137 111.671 8.79673C112.765 9.62146 113.405 10.7864 113.59 12.2916H110.062C109.959 11.7142 109.67 11.2709 109.196 10.9617C108.721 10.6318 108.092 10.4668 107.308 10.4668C106.503 10.4668 105.884 10.6215 105.451 10.9307C105.038 11.2194 104.832 11.6111 104.832 12.106C104.832 12.4153 104.956 12.7039 105.203 12.972C105.471 13.2194 105.853 13.4359 106.348 13.6214C106.844 13.7864 107.452 13.9513 108.174 14.1163C109.33 14.3431 110.351 14.6111 111.238 14.9204C112.125 15.2297 112.827 15.6833 113.343 16.2812C113.858 16.8792 114.116 17.7245 114.116 18.8173C114.137 19.807 113.879 20.6833 113.343 21.4462C112.827 22.209 112.094 22.807 111.145 23.24C110.196 23.6523 109.062 23.8585 107.741 23.8585Z" fill="white"/>
<path d="M123.954 23.4874C122.901 23.4874 121.983 23.3224 121.199 22.9925C120.436 22.6626 119.837 22.1163 119.404 21.3534C118.971 20.5905 118.754 19.5596 118.754 18.2606V11.0235H116.093V7.89982H118.754L119.188 3.78644H122.468V7.89982H126.708V11.0235H122.468V18.2606C122.468 19.0441 122.633 19.5905 122.963 19.8998C123.314 20.1884 123.892 20.3328 124.696 20.3328H126.615V23.4874H123.954Z" fill="white"/>
<path d="M137.082 23.8585C135.596 23.8585 134.255 23.5183 133.059 22.8379C131.883 22.1369 130.954 21.1781 130.273 19.9616C129.613 18.7245 129.283 17.3122 129.283 15.7245C129.283 14.0957 129.623 12.673 130.304 11.4565C130.985 10.2194 131.914 9.26064 133.09 8.58023C134.286 7.8792 135.627 7.52869 137.113 7.52869C138.598 7.52869 139.929 7.8792 141.105 8.58023C142.302 9.26064 143.23 10.2091 143.891 11.4256C144.572 12.6421 144.912 14.0647 144.912 15.6936C144.912 17.3225 144.572 18.7451 143.891 19.9616C143.21 21.1781 142.271 22.1369 141.074 22.8379C139.898 23.5183 138.568 23.8585 137.082 23.8585ZM137.082 20.673C137.825 20.673 138.495 20.4874 139.094 20.1163C139.713 19.7451 140.208 19.1884 140.579 18.4462C140.951 17.7039 141.136 16.7864 141.136 15.6936C141.136 14.6008 140.951 13.6936 140.579 12.972C140.228 12.2297 139.744 11.673 139.125 11.3019C138.526 10.9307 137.856 10.7452 137.113 10.7452C136.391 10.7452 135.72 10.9307 135.101 11.3019C134.482 11.673 133.987 12.2297 133.616 12.972C133.244 13.6936 133.059 14.6008 133.059 15.6936C133.059 16.7864 133.244 17.7039 133.616 18.4462C133.987 19.1884 134.472 19.7451 135.07 20.1163C135.689 20.4874 136.36 20.673 137.082 20.673Z" fill="white"/>
<path d="M148.547 30.2915V7.89982H151.859L152.261 10.1575C152.591 9.70394 152.983 9.28126 153.437 8.88951C153.912 8.47714 154.479 8.14724 155.139 7.89982C155.82 7.6524 156.594 7.52869 157.461 7.52869C158.925 7.52869 160.215 7.88951 161.329 8.61116C162.464 9.33281 163.351 10.3122 163.991 11.5493C164.63 12.7658 164.95 14.1575 164.95 15.7245C164.95 17.2915 164.62 18.6936 163.96 19.9307C163.32 21.1472 162.433 22.1059 161.298 22.807C160.184 23.508 158.905 23.8585 157.461 23.8585C156.284 23.8585 155.253 23.642 154.366 23.209C153.499 22.7554 152.798 22.1163 152.261 21.2915V30.2915H148.547ZM156.687 20.642C157.553 20.642 158.327 20.4359 159.008 20.0235C159.689 19.6111 160.215 19.0338 160.586 18.2915C160.978 17.5493 161.174 16.6936 161.174 15.7245C161.174 14.7348 160.978 13.8689 160.586 13.1266C160.215 12.3843 159.689 11.807 159.008 11.3947C158.327 10.9823 157.553 10.7761 156.687 10.7761C155.8 10.7761 155.016 10.9823 154.335 11.3947C153.675 11.807 153.148 12.3843 152.756 13.1266C152.385 13.8689 152.199 14.7245 152.199 15.6936C152.199 16.6833 152.385 17.5493 152.756 18.2915C153.148 19.0132 153.675 19.5905 154.335 20.0235C155.016 20.4359 155.8 20.642 156.687 20.642Z" fill="white"/>
<g clip-path="url(#clip0_65_8)">
<path d="M25.4432 7.62939e-06C28.3452 1.38153e-05 30.6974 2.34106 30.6974 5.2285L30.6976 28.077C30.6975 30.9644 28.3452 33.3045 25.4432 33.3046H5.25474C2.35281 33.3046 0.00051016 30.9644 0.000372272 28.077L0.000166758 5.2285C0.000167207 2.34105 2.35266 7.62939e-06 5.25468 7.62939e-06H25.4432ZM15.2178 8.37473C13.8856 8.39694 12.4989 9.05147 11.6621 10.3268L7.30791 16.9632C6.32901 18.4551 5.97117 19.7732 6.67741 21.221C7.38368 22.6686 9.00036 23.345 10.7069 23.3451H15.6932L16.0918 19.3826H11.1055C10.6083 19.3826 10.4107 19.2984 10.337 19.2466C10.3821 19.1858 10.4588 19.0758 10.582 18.8881L14.8878 12.3255L20.3905 23.3451H25.0126L24.5037 22.3268L24.1746 21.666L18.4538 10.2131C17.829 8.96209 16.5501 8.35257 15.2178 8.37473ZM10.2977 19.2097C10.293 19.2003 10.297 19.2185 10.337 19.2466C10.2203 19.4039 10.3078 19.2304 10.2977 19.2097Z" fill="white"/>
</g>
<defs>
<clipPath id="clip0_65_8">
<rect width="30.6977" height="33.305" fill="white"/>
</clipPath>
</defs>
</svg>
